<svg id="svgThumbsUp" xmlns="http://www.w3.org/2000/svg" xmlns:xlink="http://www.w3.org/1999/xlink">
  <defs></defs>
  <g id="Icons" stroke="none" stroke-width="1" fill="none" fill-rule="evenodd">
    <g id="Thumbs-Up" stroke="#ccc">
      <g id="Group-2" transform="translate(-2.000000, -1.000000)">
        <polygon id="Shape" stroke-width="2" fill="#333" transform="translate(13.706165, 14.531948) rotate(-20.000000) translate(-13.706165, -14.531948) " points="6.26937988 9.97087704 14.2014901 9.72140511 17.1909819 6.1887192 18.0460322 3.83948765 20.6960585 4.80401834 21.0011683 7.04342478 18.1039058 11.9258993 23.6431465 13.942018 23.951116 15.6223717 22.4730776 17.1567559 22.7720466 18.8618384 21.375013 20.1736638 19.9265633 21.9988642 17.6638836 24.9839524 14.8319063 25.2244086 10.7970698 23.7558482 5.76280729 19.9802026 3.46121449 17.686248"></polygon>
        <path d="M22.5,14.5 L15.5,14.5" id="Line" stroke-linecap="square"></path>
        <polyline id="Line" stroke-linecap="square" points="16.5 11 14.5 12.5 15.5 14.5 14.5 15.5 14.5 17 14 19 14.5 20.5 14 21.5 14.5 23.5"></polyline>
        <path d="M15,17.5 L21.5,17.5" id="Line" stroke-linecap="square"></path>
        <path d="M14.5,20.5 L20.5,20.5" id="Line" stroke-linecap="square"></path>
      </g>
    </g>
  </g>
</svg>
