<?xml version="1.0" standalone="no"?>
<!DOCTYPE svg PUBLIC "-//W3C//DTD SVG 20010904//EN"
 "http://www.w3.org/TR/2001/REC-SVG-20010904/DTD/svg10.dtd">
<svg version="1.0" xmlns="http://www.w3.org/2000/svg"
 width="64.000000pt" height="64.000000pt" viewBox="0 0 64.000000 64.000000"
 preserveAspectRatio="xMidYMid meet">
<metadata>
Created by potrace 1.11, written by Peter Selinger 2001-2013
</metadata>
<g transform="translate(0.000000,64.000000) scale(0.100000,-0.100000)"
fill="#000000" stroke="none">
<path d="M209 560 c-1 -19 -1 -49 -1 -67 2 -39 -16 -53 -35 -28 -14 21 -15 18
-17 -40 -1 -35 1 -41 24 -45 14 -3 37 -4 52 -2 l28 4 -22 18 -22 17 29 19 c19
12 47 19 80 19 90 0 153 -71 143 -161 -3 -27 0 -34 13 -34 31 0 35 80 7 134
-6 12 -19 30 -29 41 -13 15 -19 40 -21 90 l-3 70 -112 0 -113 1 -1 -36z m198
-39 c-2 -30 -6 -35 -22 -32 -34 8 -99 6 -122 -2 -21 -8 -23 -6 -23 32 l0 40
53 3 c28 2 67 1 85 -1 30 -3 32 -5 29 -40z"/>
<path d="M370 361 l-45 -29 -31 19 c-27 17 -33 17 -38 4 -3 -10 7 -23 31 -39
l35 -24 49 30 c54 33 65 46 53 58 -5 5 -29 -3 -54 -19z"/>
<path d="M153 363 c-18 -7 -16 -88 3 -126 9 -18 24 -41 34 -52 14 -15 18 -35
17 -85 l-1 -65 117 -3 117 -3 0 69 c0 78 6 89 32 65 17 -15 18 -14 18 35 l0
52 -52 0 -51 0 19 -21 c19 -21 18 -21 -5 -40 -35 -29 -106 -30 -154 -2 -44 26
-69 73 -70 133 0 50 -2 53 -24 43z m254 -263 l-2 -35 -82 -1 -83 -1 0 36 0 36
84 0 85 0 -2 -35z"/>
</g>
</svg>
