<?xml version="1.0" encoding="utf-8"?>
<svg version="1.1" id="Layer_1" xmlns="http://www.w3.org/2000/svg" xmlns:xlink="http://www.w3.org/1999/xlink" x="0px" y="0px"
	 viewBox="0 0 311.8 374.4" style="enable-background:new 0 0 311.8 374.4;" xml:space="preserve">
<g>
	<path fill="currentColor" d="M22.7,125.2C10.2,125.2,0,135.4,0,147.9l0,95.2c0,12.6,10.2,22.7,22.7,22.7c12.6,0,22.7-10.2,22.7-22.7l0-95.2
		C45.5,135.4,35.3,125.2,22.7,125.2 M206.1,39.7l15.9-29c0.8-1.5,0.3-3.4-1.2-4.3c-1.5-0.8-3.5-0.3-4.3,1.3l-16,29.3
		c-13.5-6-28.6-9.4-44.6-9.4c-15.9,0-31,3.3-44.4,9.3l-16-29.2c-0.8-1.5-2.8-2.1-4.3-1.3c-1.5,0.8-2.1,2.8-1.3,4.3l15.9,29
		c-31.2,16.1-52.3,46.7-52.3,81.9l204.8,0C258.3,86.4,237.2,55.8,206.1,39.7 M109.3,84.5c-4.7,0-8.6-3.8-8.6-8.6
		c0-4.7,3.8-8.6,8.6-8.6c4.7,0,8.6,3.9,8.6,8.6C117.9,80.6,114,84.5,109.3,84.5 M202.5,84.4c-4.7,0-8.6-3.8-8.6-8.6
		c0-4.7,3.8-8.6,8.6-8.6c4.7,0,8.6,3.9,8.6,8.6C211.1,80.6,207.3,84.4,202.5,84.4 M54.3,129.5l0,147.6c0,13.4,10.8,24.3,24.3,24.3
		l16.5,0l0,50.4c0,12.5,10.2,22.7,22.7,22.7c12.6,0,22.7-10.2,22.7-22.8l0-50.4l30.7,0l0,50.4c0,12.5,10.2,22.7,22.7,22.7
		c12.6,0,22.7-10.2,22.7-22.7l0-50.4l16.6,0c13.4,0,24.3-10.8,24.3-24.3l0-147.6L54.3,129.5z M311.8,147.9
		c0-12.6-10.2-22.7-22.7-22.7c-12.6,0-22.7,10.2-22.7,22.7l0,95.2c0,12.6,10.2,22.7,22.7,22.7c12.6,0,22.7-10.2,22.7-22.7
		L311.8,147.9z"/>
</g>
</svg>