<svg xmlns="http://www.w3.org/2000/svg" width="407" height="200" viewBox="0 0 407 200">
  <g fill="none" fill-rule="evenodd" transform="translate(-12 2)">
    <polygon fill="#D8D8D8" stroke="#373A3C" stroke-width="4" points="161.431 192.763 244.065 174.619 257.893 139.929 242.619 102.586 210.226 86.935 180.964 64.881 138.691 59.331 90.527 71.943 59.395 73.073 32.412 90.054 13.673 129.878 37.428 168.39 100.959 188.597" transform="scale(-1 1) rotate(-15 0 1157.421)"/>
    <polyline stroke="#373A3C" stroke-width="2" points="17.5 159.5 57 180 115 176.5 171.5 167 233 133 250 105.5" transform="matrix(-1 0 0 1 267.5 0)"/>
    <g transform="translate(174 127)">
      <circle cx="13.5" cy="13.5" r="13.5" fill="#FFFFFF" stroke="#373A3C" stroke-width="2" transform="matrix(-1 0 0 1 27 0)"/>
      <circle cx="16.5" cy="17.5" r="9.5" fill="#373A3C" stroke="#373A3C" stroke-width="2" transform="matrix(-1 0 0 1 33 0)"/>
      <circle cx="11" cy="16" r="2" fill="#FFFFFF" transform="matrix(-1 0 0 1 22 0)"/>
    </g>
    <g transform="translate(226 115)">
      <circle cx="13.5" cy="13.5" r="13.5" fill="#FFFFFF" stroke="#373A3C" stroke-width="2" transform="matrix(-1 0 0 1 27 0)"/>
      <circle cx="15.5" cy="16.5" r="9.5" fill="#373A3C" stroke="#373A3C" stroke-width="2" transform="matrix(-1 0 0 1 31 0)"/>
      <circle cx="11" cy="15" r="2" fill="#FFFFFF" transform="matrix(-1 0 0 1 22 0)"/>
    </g>
    <g transform="translate(271)">
      <polygon fill="#FFFFFF" stroke="#373A3C" stroke-width="4" points="25.576 0 120.886 0 146 22.464 146 91.623 120.886 111.304 37.5 111.304 11.089 128 11.089 100.5 0 91.623 0 22.464"/>
      <text fill="#000000" font-family="OpenSans-Light, Open Sans" font-size="44" font-weight="300">
        <tspan x="36" y="71">404</tspan>
      </text>
    </g>
  </g>
</svg>
