<svg xmlns="http://www.w3.org/2000/svg" xmlns:xlink="http://www.w3.org/1999/xlink">
    <g fill="none" fill-rule="evenodd">
        <circle r="7" cx="12.5" cy="12.5" stroke-width="4"/>
        <!-- bottom -->
        <polygon stroke-width="4" points="10.5,19.5 14.5,19.5 14,21.5 11,21.5"/>
        <!-- top -->
        <polygon stroke-width="4" points="10.5,19.5 14.5,19.5 14,21.5 11,21.5" transform="rotate(180 12.5 12.5)"/>
        <!-- left bottom -->
        <polygon stroke-width="4" points="10.5,19.5 14.5,19.5 14,21.5 11,21.5" transform="rotate(60 12.5 12.5)"/>
        <!-- left top -->
        <polygon stroke-width="4" points="10.5,19.5 14.5,19.5 14,21.5 11,21.5" transform="rotate(120 12.5 12.5)"/>
        <!-- right bottom -->
        <polygon stroke-width="4" points="10.5,19.5 14.5,19.5 14,21.5 11,21.5" transform="rotate(-60 12.5 12.5)"/>
        <!-- right top -->
        <polygon stroke-width="4" points="10.5,19.5 14.5,19.5 14,21.5 11,21.5" transform="rotate(-120 12.5 12.5)"/>
        <!-- <polygon stroke-width="4" points="9,4.4 16,4.4 15.5,0.5 9.5,0.5"/> -->
    </g>
</svg>